<svg width="25" height="25" viewBox="0 0 25 25" fill="none" xmlns="http://www.w3.org/2000/svg">
<g clip-path="url(#clip0_120_1328)">
<path fill-rule="evenodd" clip-rule="evenodd" d="M1.90959 2.2158C3.13066 0.797022 4.78655 0 6.51314 0C8.23972 0 9.89561 0.797022 11.1167 2.2158C11.3554 2.49228 11.6628 2.83637 12.0387 3.24806C12.4137 2.83637 12.7206 2.49228 12.9594 2.2158C14.1753 0.809172 15.8198 0.0171283 17.5354 0.0117881C19.2509 0.00644794 20.899 0.788243 22.1214 2.18728C23.3438 3.58631 24.0418 5.48952 24.0636 7.48332C24.0855 9.47712 23.4295 11.4004 22.2381 12.8352L12.9581 23.621C12.7139 23.9048 12.3827 24.0642 12.0374 24.0642C11.6921 24.0642 11.3609 23.9048 11.1167 23.621L1.83667 12.8367C0.646441 11.41 -0.013201 9.49637 0.00020027 7.50917C0.0136015 5.52198 0.700272 3.62065 1.90959 2.2158Z" fill="#B5B5B5"/>
</g>
<defs>
<clipPath id="clip0_120_1328">
<rect width="24.0642" height="24.0642" fill="white"/>
</clipPath>
</defs>
</svg>
