<svg width="25" height="25" viewBox="0 0 25 25" fill="none" xmlns="http://www.w3.org/2000/svg">
<g clip-path="url(#clip0_120_1324)">
<path fill-rule="evenodd" clip-rule="evenodd" d="M7.25538 1.28342C7.62877 0.526203 8.43422 0 9.36503 0H14.6991C15.6299 0 16.4341 0.526203 16.8088 1.28342C17.7196 1.29112 18.4304 1.33091 19.0651 1.56963C19.8229 1.85489 20.4819 2.33969 20.9667 2.96856C21.4561 3.60257 21.6868 4.41497 22.0016 5.53283L22.991 9.02631L23.3644 10.1057L23.3964 10.1442C24.5979 11.6252 24.0258 13.8276 22.8817 18.231C22.1536 21.0327 21.7909 22.4329 20.7054 23.2492C19.6199 24.0642 18.1196 24.0642 15.1192 24.0642H8.94497C5.94453 24.0642 4.4443 24.0642 3.35881 23.2492C2.27332 22.4329 1.90926 21.0327 1.18249 18.231C0.0383228 13.8276 -0.533762 11.6252 0.667748 10.1442L0.699753 10.1057L1.07314 9.02631L2.06262 5.53283C2.37867 4.41497 2.60937 3.60128 3.09744 2.96727C3.58248 2.33888 4.24147 1.85454 4.99905 1.56963C5.63381 1.33091 6.34325 1.28984 7.25538 1.28342ZM7.25805 3.21241C6.37525 3.22139 6.02054 3.25348 5.72716 3.36385C5.31905 3.51745 4.96413 3.77854 4.70301 4.11722C4.46831 4.42139 4.32962 4.8462 3.9429 6.21561L3.18278 8.89668C4.54298 8.6631 6.40193 8.6631 8.94363 8.6631H15.1192C17.6622 8.6631 19.5199 8.6631 20.8801 8.89412L20.1213 6.21305C19.7346 4.84364 19.5959 4.41882 19.3612 4.11465C19.1 3.77597 18.7451 3.51488 18.337 3.36128C18.0436 3.25091 17.6889 3.21882 16.8061 3.20984C16.6168 3.59339 16.3183 3.91742 15.9454 4.14435C15.5725 4.37128 15.1404 4.49182 14.6991 4.49198H9.36503C8.92396 4.49193 8.49193 4.37159 8.11902 4.14489C7.74611 3.91819 7.44759 3.59571 7.25805 3.21241Z" fill="#B5B5B5"/>
</g>
<defs>
<clipPath id="clip0_120_1324">
<rect width="24.0642" height="24.0642" fill="white"/>
</clipPath>
</defs>
</svg>
