<svg width="15" height="15" viewBox="0 0 15 15" fill="none" xmlns="http://www.w3.org/2000/svg">
<path d="M6.1721 7.18841L0.210783 1.22853C0.143956 1.16171 0.090947 1.08237 0.0547808 0.995059C0.0186146 0.907746 7.04131e-10 0.814165 0 0.719658C-7.04131e-10 0.625151 0.0186146 0.53157 0.0547808 0.444257C0.090947 0.356944 0.143956 0.277609 0.210783 0.210783C0.277609 0.143956 0.356944 0.090947 0.444257 0.0547808C0.53157 0.0186146 0.625151 -7.04131e-10 0.719658 0C0.814165 7.04131e-10 0.907746 0.0186146 0.995059 0.0547808C1.08237 0.090947 1.16171 0.143956 1.22853 0.210783L7.18841 6.1721L13.1483 0.210783C13.2832 0.0758207 13.4663 0 13.6572 0C13.848 0 14.0311 0.0758207 14.166 0.210783C14.301 0.345745 14.3768 0.528793 14.3768 0.719658C14.3768 0.910523 14.301 1.09357 14.166 1.22853L8.20472 7.18841L14.166 13.1483C14.301 13.2832 14.3768 13.4663 14.3768 13.6572C14.3768 13.848 14.301 14.0311 14.166 14.166C14.0311 14.301 13.848 14.3768 13.6572 14.3768C13.4663 14.3768 13.2832 14.301 13.1483 14.166L7.18841 8.20472L1.22853 14.166C1.09357 14.301 0.910523 14.3768 0.719658 14.3768C0.528793 14.3768 0.345745 14.301 0.210783 14.166C0.0758207 14.0311 0 13.848 0 13.6572C0 13.4663 0.0758207 13.2832 0.210783 13.1483L6.1721 7.18841Z" fill="black"/>
</svg>
