<svg width="22" height="22" viewBox="0 0 22 22" fill="none" xmlns="http://www.w3.org/2000/svg">
<rect width="22" height="22" rx="2.2" fill="#F4F4F4"/>
<rect width="22" height="22" rx="2.2" fill="#F4F4F4"/>
<path d="M15.1801 7.7004H14.5201V15.2904C14.5201 15.4279 14.4943 15.5568 14.4428 15.6771C14.3912 15.7974 14.3207 15.9023 14.2313 15.9916C14.142 16.081 14.0371 16.1515 13.9168 16.2031C13.7965 16.2546 13.6676 16.2804 13.5301 16.2804H8.2501C8.1126 16.2804 7.98369 16.2546 7.86338 16.2031C7.74307 16.1515 7.63822 16.081 7.54885 15.9916C7.45947 15.9023 7.389 15.7974 7.33744 15.6771C7.28588 15.5568 7.2601 15.4279 7.2601 15.2904V7.7004H6.6001V7.0404H9.2401V6.3804C9.2401 6.28759 9.25728 6.20165 9.29166 6.12259C9.32603 6.04353 9.37244 5.97478 9.43088 5.91634C9.48932 5.8579 9.55978 5.80978 9.64228 5.77196C9.72478 5.73415 9.81072 5.71696 9.9001 5.7204H11.8801C11.9729 5.7204 12.0588 5.73759 12.1379 5.77196C12.217 5.80634 12.2857 5.85274 12.3442 5.91118C12.4026 5.96962 12.4507 6.04009 12.4885 6.12259C12.5263 6.20509 12.5435 6.29103 12.5401 6.3804V7.0404H15.1801V7.7004ZM9.9001 7.0404H11.8801V6.3804H9.9001V7.0404ZM13.8601 7.7004H7.9201V15.2904C7.9201 15.3798 7.95275 15.4571 8.01807 15.5224C8.08338 15.5877 8.16072 15.6204 8.2501 15.6204H13.5301C13.6195 15.6204 13.6968 15.5877 13.7621 15.5224C13.8274 15.4571 13.8601 15.3798 13.8601 15.2904V7.7004ZM9.9001 14.3004H9.2401V9.0204H9.9001V14.3004ZM11.2201 14.3004H10.5601V9.0204H11.2201V14.3004ZM12.5401 14.3004H11.8801V9.0204H12.5401V14.3004Z" fill="black"/>
</svg>
