<svg width="19" height="19" viewBox="0 0 19 19" fill="none" xmlns="http://www.w3.org/2000/svg">
<rect width="19" height="19" rx="9.5" fill="white"/>
<path d="M13.458 6.58667C13.7454 6.58667 13.8737 6.64401 13.9121 6.66382C13.9523 6.68454 13.9873 6.71278 14.0273 6.76831C14.0737 6.83272 14.1228 6.93094 14.1592 7.05835C14.1966 7.18914 14.2051 7.29547 14.2051 7.33374C14.2049 9.07895 13.0429 10.8508 11.4004 12.4021C10.732 13.0333 10.0549 13.5568 9.5 13.9509C8.94513 13.5568 8.268 13.0333 7.59961 12.4021C5.95706 10.8508 4.79507 9.07895 4.79492 7.33374C4.79492 7.29547 4.80345 7.18914 4.84082 7.05835C4.87723 6.93094 4.92628 6.83272 4.97266 6.76831C5.01267 6.71278 5.04772 6.68454 5.08789 6.66382C5.12634 6.644 5.25455 6.58667 5.54199 6.58667C6.09094 6.58676 6.49214 6.8041 6.77637 7.08276C6.92468 7.22819 7.02211 7.37317 7.07324 7.47534C7.08008 7.48902 7.08451 7.50163 7.08887 7.51147C7.1801 8.76478 8.22342 9.75366 9.5 9.75366C10.7766 9.75366 11.8189 8.76475 11.9102 7.51147C11.9145 7.50155 11.9198 7.48918 11.9268 7.47534C11.9779 7.37317 12.0753 7.22819 12.2236 7.08276C12.5079 6.8041 12.9091 6.58676 13.458 6.58667Z" stroke="#0A3569" stroke-width="4.84" stroke-linecap="round" stroke-linejoin="round"/>
</svg>
