<svg width="20" height="20" viewBox="0 0 20 20" fill="none" xmlns="http://www.w3.org/2000/svg">
<path d="M14.3871 2.604C12.6511 0.868 11.7831 0 10.7051 0C9.62612 0 8.75812 0.868 7.02312 2.604L2.60312 7.023C0.86812 8.758 0.00012207 9.626 0.00012207 10.705C0.00012207 11.784 0.868122 12.651 2.60412 14.387C4.34012 16.123 5.20812 16.991 6.28612 16.991C7.36512 16.991 8.23312 16.123 9.96812 14.387L14.3881 9.968C16.1221 8.233 16.9911 7.365 16.9911 6.286C16.9911 5.207 16.1231 4.34 14.3871 2.604ZM14.7071 11.77L19.1651 16.228C19.5081 16.571 19.6791 16.742 19.7821 16.92C19.9194 17.1574 19.9917 17.4268 19.9917 17.701C19.9917 17.9752 19.9194 18.2446 19.7821 18.482C19.6791 18.66 19.5081 18.832 19.1651 19.174C18.8221 19.516 18.6521 19.688 18.4731 19.791C18.2357 19.9283 17.9664 20.0006 17.6921 20.0006C17.4179 20.0006 17.1485 19.9283 16.9111 19.791C16.7331 19.688 16.5611 19.516 16.2191 19.174L11.7611 14.716L14.7071 11.77Z" fill="#0A3569"/>
</svg>
