<svg width="25" height="25" viewBox="0 0 25 25" fill="none" xmlns="http://www.w3.org/2000/svg">
<g clip-path="url(#clip0_120_1646)">
<path fill-rule="evenodd" clip-rule="evenodd" d="M6.68449 5.3476C6.68449 3.92932 7.2479 2.56914 8.25077 1.56627C9.25364 0.563406 10.6138 0 12.0321 0C13.4504 0 14.8105 0.563406 15.8134 1.56627C16.8163 2.56914 17.3797 3.92932 17.3797 5.3476C17.3797 6.76587 16.8163 8.12605 15.8134 9.12892C14.8105 10.1318 13.4504 10.6952 12.0321 10.6952C10.6138 10.6952 9.25364 10.1318 8.25077 9.12892C7.2479 8.12605 6.68449 6.76587 6.68449 5.3476ZM6.68449 13.369C4.91166 13.369 3.21143 14.0732 1.95784 15.3268C0.704257 16.5804 0 18.2806 0 20.0535C0 21.1172 0.422554 22.1373 1.17471 22.8895C1.92686 23.6416 2.94699 24.0642 4.0107 24.0642H20.0535C21.1172 24.0642 22.1373 23.6416 22.8895 22.8895C23.6416 22.1373 24.0642 21.1172 24.0642 20.0535C24.0642 18.2806 23.3599 16.5804 22.1063 15.3268C20.8527 14.0732 19.1525 13.369 17.3797 13.369H6.68449Z" fill="#B5B5B5"/>
</g>
<defs>
<clipPath id="clip0_120_1646">
<rect width="24.0642" height="24.0642" fill="white"/>
</clipPath>
</defs>
</svg>
